<mxfile host="app.diagrams.net" agent="Mozilla/5.0 (Windows NT 10.0; Win64; x64) AppleWebKit/537.36 (KHTML, like Gecko) Chrome/136.0.0.0 Safari/537.36" version="26.0.6">
  <diagram name="Page-1" id="74b105a0-9070-1c63-61bc-23e55f88626e">
    <mxGraphModel dx="2206" dy="1334" grid="1" gridSize="10" guides="1" tooltips="1" connect="1" arrows="1" fold="1" page="1" pageScale="1.5" pageWidth="1169" pageHeight="826" background="none" math="0" shadow="0">
      <root>
        <mxCell id="0" style=";html=1;" />
        <mxCell id="1" style=";html=1;" parent="0" />
        <mxCell id="owzcHMVt2MOOoYP1INAh-39" value="" style="rounded=1;whiteSpace=wrap;html=1;fillColor=light-dark(#E6E6E6,#EDEDED);" vertex="1" parent="1">
          <mxGeometry x="441" y="500" width="1200" height="490" as="geometry" />
        </mxCell>
        <mxCell id="owzcHMVt2MOOoYP1INAh-36" value="" style="rounded=1;whiteSpace=wrap;html=1;fillColor=#dae8fc;strokeColor=#6c8ebf;" vertex="1" parent="1">
          <mxGeometry x="1061" y="620" width="530" height="340" as="geometry" />
        </mxCell>
        <mxCell id="owzcHMVt2MOOoYP1INAh-48" value="" style="rounded=1;whiteSpace=wrap;html=1;fillColor=#f8cecc;strokeColor=#b85450;" vertex="1" parent="1">
          <mxGeometry x="1091" y="690" width="470" height="250" as="geometry" />
        </mxCell>
        <mxCell id="owzcHMVt2MOOoYP1INAh-37" value="" style="image;sketch=0;aspect=fixed;html=1;points=[];align=center;fontSize=12;image=img/lib/mscae/Docker.svg;" vertex="1" parent="1">
          <mxGeometry x="1110" y="533.85" width="93" height="76.26" as="geometry" />
        </mxCell>
        <mxCell id="owzcHMVt2MOOoYP1INAh-35" value="" style="rounded=1;whiteSpace=wrap;html=1;fillColor=#dae8fc;strokeColor=#6c8ebf;" vertex="1" parent="1">
          <mxGeometry x="471" y="620" width="530" height="340" as="geometry" />
        </mxCell>
        <mxCell id="owzcHMVt2MOOoYP1INAh-1" value="" style="sketch=0;outlineConnect=0;fontColor=#232F3E;gradientColor=none;fillColor=#232F3D;strokeColor=none;dashed=0;verticalLabelPosition=bottom;verticalAlign=top;align=center;html=1;fontSize=12;fontStyle=0;aspect=fixed;pointerEvents=1;shape=mxgraph.aws4.user;" vertex="1" parent="1">
          <mxGeometry x="91" y="772.94" width="78" height="78" as="geometry" />
        </mxCell>
        <mxCell id="owzcHMVt2MOOoYP1INAh-2" value="" style="verticalLabelPosition=bottom;aspect=fixed;html=1;shape=mxgraph.salesforce.web;" vertex="1" parent="1">
          <mxGeometry x="291" y="783.4" width="80" height="63.2" as="geometry" />
        </mxCell>
        <mxCell id="owzcHMVt2MOOoYP1INAh-3" value="" style="rounded=1;whiteSpace=wrap;html=1;fillColor=#99FF99;strokeColor=#82b366;" vertex="1" parent="1">
          <mxGeometry x="501" y="719" width="460" height="200" as="geometry" />
        </mxCell>
        <mxCell id="owzcHMVt2MOOoYP1INAh-5" value="" style="dashed=0;outlineConnect=0;html=1;align=center;labelPosition=center;verticalLabelPosition=bottom;verticalAlign=top;shape=mxgraph.weblogos.html5" vertex="1" parent="1">
          <mxGeometry x="551" y="762.53" width="73.22" height="103.4" as="geometry" />
        </mxCell>
        <mxCell id="owzcHMVt2MOOoYP1INAh-7" value="" style="shape=image;verticalLabelPosition=bottom;labelBackgroundColor=default;verticalAlign=top;aspect=fixed;imageAspect=0;image=https://upload.wikimedia.org/wikipedia/commons/thumb/d/d5/CSS3_logo_and_wordmark.svg/1452px-CSS3_logo_and_wordmark.svg.png;" vertex="1" parent="1">
          <mxGeometry x="691" y="762.53" width="70" height="98.82" as="geometry" />
        </mxCell>
        <mxCell id="owzcHMVt2MOOoYP1INAh-9" value="" style="shape=image;verticalLabelPosition=bottom;labelBackgroundColor=default;verticalAlign=top;aspect=fixed;imageAspect=0;image=https://upload.wikimedia.org/wikipedia/commons/6/6a/JavaScript-logo.png;" vertex="1" parent="1">
          <mxGeometry x="822" y="770" width="91.35" height="91.35" as="geometry" />
        </mxCell>
        <mxCell id="owzcHMVt2MOOoYP1INAh-10" value="" style="rounded=1;whiteSpace=wrap;html=1;fillColor=#CDEAE8;" vertex="1" parent="1">
          <mxGeometry x="1161" y="750" width="370" height="169" as="geometry" />
        </mxCell>
        <mxCell id="owzcHMVt2MOOoYP1INAh-17" value="" style="shape=image;verticalLabelPosition=bottom;labelBackgroundColor=default;verticalAlign=top;aspect=fixed;imageAspect=0;image=https://cosasdedevs.com/media/sections/images/fastapi.png;" vertex="1" parent="1">
          <mxGeometry x="1338" y="700" width="163" height="58.8" as="geometry" />
        </mxCell>
        <mxCell id="owzcHMVt2MOOoYP1INAh-19" value="" style="rounded=1;whiteSpace=wrap;html=1;" vertex="1" parent="1">
          <mxGeometry x="1281" y="827.4" width="230" height="78.6" as="geometry" />
        </mxCell>
        <mxCell id="owzcHMVt2MOOoYP1INAh-20" value="" style="shape=image;verticalLabelPosition=bottom;labelBackgroundColor=default;verticalAlign=top;aspect=fixed;imageAspect=0;image=https://learnopencv.com/wp-content/uploads/2024/03/diffusers-library.jpg;" vertex="1" parent="1">
          <mxGeometry x="1301" y="844.32" width="190" height="44.75" as="geometry" />
        </mxCell>
        <mxCell id="owzcHMVt2MOOoYP1INAh-28" style="edgeStyle=orthogonalEdgeStyle;rounded=0;orthogonalLoop=1;jettySize=auto;html=1;" edge="1" parent="1" source="owzcHMVt2MOOoYP1INAh-21" target="owzcHMVt2MOOoYP1INAh-24">
          <mxGeometry relative="1" as="geometry" />
        </mxCell>
        <mxCell id="owzcHMVt2MOOoYP1INAh-29" style="edgeStyle=orthogonalEdgeStyle;rounded=0;orthogonalLoop=1;jettySize=auto;html=1;" edge="1" parent="1" source="owzcHMVt2MOOoYP1INAh-21" target="owzcHMVt2MOOoYP1INAh-27">
          <mxGeometry relative="1" as="geometry" />
        </mxCell>
        <mxCell id="owzcHMVt2MOOoYP1INAh-21" value="" style="shape=image;verticalLabelPosition=bottom;labelBackgroundColor=default;verticalAlign=top;aspect=fixed;imageAspect=0;image=https://ai-market.jp/wp-content/uploads/2024/05/hf-logo-with-title-1200x319.png;" vertex="1" parent="1">
          <mxGeometry x="1261" y="1020" width="270" height="71.77" as="geometry" />
        </mxCell>
        <mxCell id="owzcHMVt2MOOoYP1INAh-23" value="" style="shape=image;verticalLabelPosition=bottom;labelBackgroundColor=default;verticalAlign=top;aspect=fixed;imageAspect=0;image=https://cdn-icons-png.flaticon.com/512/8618/8618880.png;" vertex="1" parent="1">
          <mxGeometry x="951" y="1140" width="57" height="57" as="geometry" />
        </mxCell>
        <mxCell id="owzcHMVt2MOOoYP1INAh-24" value="&lt;div&gt;&lt;b&gt;&lt;font style=&quot;background-color: transparent; color: light-dark(rgb(0, 0, 0), rgb(255, 255, 255)); font-size: 20px;&quot;&gt;CompVis&lt;/font&gt;&lt;span style=&quot;background-color: transparent; color: light-dark(rgb(0, 0, 0), rgb(255, 255, 255)); font-size: 20px;&quot;&gt;/&lt;/span&gt;&lt;span style=&quot;background-color: transparent; color: light-dark(rgb(0, 0, 0), rgb(255, 255, 255)); font-size: 20px;&quot;&gt;stable-diffusion-v1-4&lt;/span&gt;&lt;/b&gt;&lt;/div&gt;" style="text;html=1;align=center;verticalAlign=middle;resizable=0;points=[];autosize=1;strokeColor=none;fillColor=none;" vertex="1" parent="1">
          <mxGeometry x="1008" y="1148.5" width="310" height="40" as="geometry" />
        </mxCell>
        <mxCell id="owzcHMVt2MOOoYP1INAh-26" value="" style="shape=image;verticalLabelPosition=bottom;labelBackgroundColor=default;verticalAlign=top;aspect=fixed;imageAspect=0;image=https://cdn-icons-png.flaticon.com/512/8618/8618880.png;" vertex="1" parent="1">
          <mxGeometry x="1391" y="1140" width="57" height="57" as="geometry" />
        </mxCell>
        <mxCell id="owzcHMVt2MOOoYP1INAh-27" value="&lt;span style=&quot;font-size: 20px;&quot;&gt;&lt;b&gt;stabilityai/sdxl-turbo&lt;/b&gt;&lt;/span&gt;" style="text;html=1;align=center;verticalAlign=middle;resizable=0;points=[];autosize=1;strokeColor=none;fillColor=none;" vertex="1" parent="1">
          <mxGeometry x="1448" y="1148.5" width="220" height="40" as="geometry" />
        </mxCell>
        <mxCell id="owzcHMVt2MOOoYP1INAh-30" value="" style="image;sketch=0;aspect=fixed;html=1;points=[];align=center;fontSize=12;image=img/lib/mscae/Docker.svg;" vertex="1" parent="1">
          <mxGeometry x="511" y="540" width="85" height="69.7" as="geometry" />
        </mxCell>
        <mxCell id="owzcHMVt2MOOoYP1INAh-31" value="" style="shape=image;verticalLabelPosition=bottom;labelBackgroundColor=default;verticalAlign=top;aspect=fixed;imageAspect=0;image=https://cdn.raiolanetworks.com/blog/wp-content/uploads/queesnginx1-1024x344.png;" vertex="1" parent="1">
          <mxGeometry x="652" y="665.9399999999999" width="158" height="53.06" as="geometry" />
        </mxCell>
        <mxCell id="owzcHMVt2MOOoYP1INAh-34" value="&lt;font style=&quot;font-size: 24px;&quot;&gt;/generate&lt;/font&gt;" style="rounded=1;whiteSpace=wrap;html=1;fillColor=light-dark(#cdeae8, #ededed);gradientColor=none;" vertex="1" parent="1">
          <mxGeometry x="1103" y="784.23" width="120" height="60" as="geometry" />
        </mxCell>
        <mxCell id="owzcHMVt2MOOoYP1INAh-38" value="" style="shape=image;verticalLabelPosition=bottom;labelBackgroundColor=default;verticalAlign=top;aspect=fixed;imageAspect=0;image=https://miro.medium.com/v2/resize:fit:453/1*QVFjsW8gyIXeCUJucmK4XA.png;" vertex="1" parent="1">
          <mxGeometry x="822" y="390" width="173.57" height="100" as="geometry" />
        </mxCell>
        <mxCell id="owzcHMVt2MOOoYP1INAh-46" value="&lt;font style=&quot;font-size: 32px;&quot;&gt;SD-FRONTEND&lt;/font&gt;" style="text;html=1;align=center;verticalAlign=middle;resizable=0;points=[];autosize=1;strokeColor=none;fillColor=none;" vertex="1" parent="1">
          <mxGeometry x="596" y="549.85" width="260" height="50" as="geometry" />
        </mxCell>
        <mxCell id="owzcHMVt2MOOoYP1INAh-47" value="&lt;span style=&quot;font-size: 32px;&quot;&gt;SD-BACKEND&lt;/span&gt;" style="text;html=1;align=center;verticalAlign=middle;resizable=0;points=[];autosize=1;strokeColor=none;fillColor=none;" vertex="1" parent="1">
          <mxGeometry x="1211" y="546.98" width="230" height="50" as="geometry" />
        </mxCell>
        <mxCell id="owzcHMVt2MOOoYP1INAh-50" value="" style="shape=image;verticalLabelPosition=bottom;labelBackgroundColor=default;verticalAlign=top;aspect=fixed;imageAspect=0;image=https://miro.medium.com/v2/resize:fit:512/1*IMGOKBIN8qkOBt5CH55NSw.png;" vertex="1" parent="1">
          <mxGeometry x="1111" y="634" width="112" height="56" as="geometry" />
        </mxCell>
        <mxCell id="owzcHMVt2MOOoYP1INAh-51" value="" style="shape=image;verticalLabelPosition=bottom;labelBackgroundColor=default;verticalAlign=top;aspect=fixed;imageAspect=0;image=https://brandlogos.net/wp-content/uploads/2022/03/nvidia-logo-brandlogos.net_-512x512.png;clipPath=inset(34% 2% 34.33% 2%);" vertex="1" parent="1">
          <mxGeometry x="1261" y="634" width="162" height="53.44" as="geometry" />
        </mxCell>
        <mxCell id="owzcHMVt2MOOoYP1INAh-52" value="&lt;font style=&quot;font-size: 33px;&quot;&gt;+&lt;/font&gt;" style="text;html=1;align=center;verticalAlign=middle;resizable=0;points=[];autosize=1;strokeColor=none;fillColor=none;" vertex="1" parent="1">
          <mxGeometry x="1223" y="634" width="40" height="50" as="geometry" />
        </mxCell>
        <mxCell id="owzcHMVt2MOOoYP1INAh-56" value="" style="shape=flexArrow;endArrow=classic;html=1;rounded=0;fillColor=#000000;" edge="1" parent="1">
          <mxGeometry width="50" height="50" relative="1" as="geometry">
            <mxPoint x="169" y="814.0200000000001" as="sourcePoint" />
            <mxPoint x="279" y="814.08" as="targetPoint" />
          </mxGeometry>
        </mxCell>
        <mxCell id="owzcHMVt2MOOoYP1INAh-57" value="" style="shape=flexArrow;endArrow=classic;html=1;rounded=0;entryX=-0.005;entryY=0.483;entryDx=0;entryDy=0;entryPerimeter=0;fillColor=#000000;" edge="1" parent="1" target="owzcHMVt2MOOoYP1INAh-3">
          <mxGeometry width="50" height="50" relative="1" as="geometry">
            <mxPoint x="381" y="815.4700000000001" as="sourcePoint" />
            <mxPoint x="491" y="815.5300000000001" as="targetPoint" />
          </mxGeometry>
        </mxCell>
        <mxCell id="owzcHMVt2MOOoYP1INAh-58" value="" style="shape=flexArrow;endArrow=classic;html=1;rounded=0;fillColor=#000000;entryX=-0.015;entryY=0.453;entryDx=0;entryDy=0;entryPerimeter=0;" edge="1" parent="1" target="owzcHMVt2MOOoYP1INAh-34">
          <mxGeometry width="50" height="50" relative="1" as="geometry">
            <mxPoint x="961" y="810.0000000000001" as="sourcePoint" />
            <mxPoint x="1079" y="810.53" as="targetPoint" />
          </mxGeometry>
        </mxCell>
        <mxCell id="owzcHMVt2MOOoYP1INAh-60" value="" style="shape=flexArrow;endArrow=classic;html=1;rounded=0;fillColor=#000000;entryX=0.5;entryY=0;entryDx=0;entryDy=0;exitX=0.5;exitY=1;exitDx=0;exitDy=0;" edge="1" parent="1" source="owzcHMVt2MOOoYP1INAh-19" target="owzcHMVt2MOOoYP1INAh-21">
          <mxGeometry width="50" height="50" relative="1" as="geometry">
            <mxPoint x="1396" y="900" as="sourcePoint" />
            <mxPoint x="1531" y="907" as="targetPoint" />
          </mxGeometry>
        </mxCell>
        <mxCell id="owzcHMVt2MOOoYP1INAh-61" value="&lt;font style=&quot;font-size: 24px;&quot;&gt;USER&lt;/font&gt;" style="text;html=1;align=center;verticalAlign=middle;resizable=0;points=[];autosize=1;strokeColor=none;fillColor=none;" vertex="1" parent="1">
          <mxGeometry x="85" y="866" width="90" height="40" as="geometry" />
        </mxCell>
        <mxCell id="owzcHMVt2MOOoYP1INAh-62" value="&lt;span style=&quot;font-size: 32px;&quot;&gt;ORCHESTER&lt;/span&gt;" style="text;html=1;align=center;verticalAlign=middle;resizable=0;points=[];autosize=1;strokeColor=none;fillColor=none;" vertex="1" parent="1">
          <mxGeometry x="995.57" y="415" width="220" height="50" as="geometry" />
        </mxCell>
        <mxCell id="owzcHMVt2MOOoYP1INAh-63" value="" style="shape=image;html=1;verticalAlign=top;verticalLabelPosition=bottom;labelBackgroundColor=#ffffff;imageAspect=0;aspect=fixed;image=https://cdn4.iconfinder.com/data/icons/ionicons/512/icon-social-github-128.png" vertex="1" parent="1">
          <mxGeometry x="300" y="140" width="148" height="148" as="geometry" />
        </mxCell>
        <mxCell id="owzcHMVt2MOOoYP1INAh-64" value="" style="shape=image;verticalLabelPosition=bottom;labelBackgroundColor=default;verticalAlign=top;aspect=fixed;imageAspect=0;image=https://upload.wikimedia.org/wikipedia/commons/thumb/8/82/Gnu-bash-logo.svg/250px-Gnu-bash-logo.svg.png;" vertex="1" parent="1">
          <mxGeometry x="850" y="165.34" width="229.5" height="97.31" as="geometry" />
        </mxCell>
        <mxCell id="owzcHMVt2MOOoYP1INAh-65" value="" style="shape=flexArrow;endArrow=classic;html=1;rounded=0;fillColor=#000000;" edge="1" parent="1">
          <mxGeometry width="50" height="50" relative="1" as="geometry">
            <mxPoint x="810" y="213.8900000000001" as="sourcePoint" />
            <mxPoint x="450" y="213.75" as="targetPoint" />
          </mxGeometry>
        </mxCell>
        <mxCell id="owzcHMVt2MOOoYP1INAh-67" value="" style="shape=flexArrow;endArrow=classic;html=1;rounded=0;fillColor=#000000;" edge="1" parent="1">
          <mxGeometry width="50" height="50" relative="1" as="geometry">
            <mxPoint x="980" y="262.7900000000001" as="sourcePoint" />
            <mxPoint x="980" y="400" as="targetPoint" />
          </mxGeometry>
        </mxCell>
      </root>
    </mxGraphModel>
  </diagram>
</mxfile>
